<?xml version="1.0" encoding="UTF-8"?>
<svg version="1.1" viewBox="0 0 700 700" xmlns="http://www.w3.org/2000/svg">
 <path d="m490 29.168h-280c-29.387 0.023437-57.562 11.707-78.344 32.488s-32.465 48.957-32.488 78.344v280c0.023437 29.387 11.707 57.562 32.488 78.344s48.957 32.465 78.344 32.488h280c29.387-0.023437 57.562-11.707 78.344-32.488s32.465-48.957 32.488-78.344v-280c-0.023437-29.387-11.707-57.562-32.488-78.344s-48.957-32.465-78.344-32.488zm23.332 268.33h-35.934l-65.102 130.43h0.003906c-1.4883 2.8672-3.7305 5.2734-6.4844 6.9609-2.7578 1.6836-5.918 2.5859-9.1484 2.6055h-1.6328c-3.5352-0.34375-6.8789-1.7539-9.5898-4.0469-2.7109-2.293-4.6562-5.3594-5.5781-8.7852l-59.266-217.23-49 81.668c-3.1797 5.207-8.8359 8.3906-14.934 8.3984h-70c-6.2539 0-12.031-3.3359-15.156-8.75s-3.125-12.086 0-17.5 8.9023-8.75 15.156-8.75h60.199l64.867-108.27c2.3828-3.8906 6.1914-6.6914 10.613-7.8125 4.4219-1.1172 9.1055-0.46094 13.051 1.8242 3.9453 2.2891 6.8398 6.0273 8.0664 10.422l58.102 212.57 49.465-99.168h0.003906c1.4844-2.8672 3.7266-5.2734 6.4844-6.9609 2.7539-1.6836 5.918-2.5859 9.1484-2.6055h46.668-0.003907c6.2539 0 12.031 3.3359 15.156 8.75s3.125 12.086 0 17.5-8.9023 8.75-15.156 8.75z"/>
</svg>
