<?xml version="1.0" encoding="UTF-8"?>
<svg width="700pt" height="700pt" version="1.1" viewBox="0 0 700 700" xmlns="http://www.w3.org/2000/svg">
 <path d="m152.67 100.76c-26.422 0-47.988 21.5-47.988 47.922v262.64c0 26.422 21.566 47.922 47.988 47.922l394.66-0.003907c26.422 0 47.988-21.5 47.988-47.922v-262.64c0-26.422-21.566-47.922-47.988-47.922zm0 17.5h394.66c17.027 0 30.488 13.391 30.488 30.422v30.109h-455.63v-30.113c0-17.027 13.461-30.422 30.488-30.422zm-30.488 78.031h455.63v33.84h-455.63zm0 51.355h455.63v163.67c0 17.027-13.461 30.422-30.488 30.422h-394.66c-17.027 0-30.488-13.391-30.488-30.422zm300.42 54.074c-13.227 0-25.922 5.2578-35.273 14.613-9.3516 9.3516-14.609 22.047-14.613 35.273 0 13.227 5.2578 25.922 14.613 35.273 9.3516 9.3516 22.047 14.629 35.273 14.629 10.605-0.007813 20.828-3.4453 29.293-9.6055 8.4766 6.1719 18.727 9.6055 29.344 9.6055 13.23 0 25.918-5.2578 35.273-14.613 9.3555-9.3555 14.613-22.062 14.613-35.289 0-13.23-5.2578-25.918-14.613-35.273-9.3555-9.3555-22.043-14.613-35.273-14.613-10.617 0-20.863 3.4336-29.344 9.6055-8.4648-6.1602-18.688-9.5977-29.293-9.6055zm-244.74 13.297v-0.003906c-2.3555-0.050781-4.6328 0.84766-6.3164 2.4961-1.6836 1.6445-2.6289 3.9023-2.6289 6.2539 0 2.3555 0.94531 4.6133 2.6289 6.2578 1.6836 1.6484 3.9609 2.5469 6.3164 2.4922h110.13-0.003907c2.3555 0.054687 4.6328-0.84375 6.3164-2.4922 1.6836-1.6445 2.6328-3.9023 2.6328-6.2578 0-2.3516-0.94922-4.6094-2.6328-6.2539-1.6836-1.6484-3.9609-2.5469-6.3164-2.4961zm244.74 4.2031c6.0781 0.003906 11.961 1.7188 17.039 4.8711-1.2617 1.9102-2.3633 3.9102-3.3477 5.9648-0.11719 0.24609-0.22656 0.48828-0.34375 0.73438-1.8945 4.1211-3.2109 8.4805-3.9297 12.988-0.054688 0.33594-0.10547 0.67188-0.15625 1.0078-0.3125 2.2539-0.53125 4.5195-0.53125 6.8203s0.21875 4.582 0.53125 6.8359c0.046874 0.33984 0.097656 0.67188 0.15625 1.0078 0.71875 4.5078 2.0352 8.8672 3.9297 12.988 0.11328 0.24609 0.22656 0.49219 0.34375 0.73438 0.98438 2.0469 2.0742 4.043 3.332 5.9492-5.0742 3.1445-10.949 4.8672-17.02 4.8711-8.5898 0-16.824-3.4102-22.902-9.4844-6.0742-6.0742-9.4844-14.309-9.4844-22.898 0-8.5898 3.4102-16.809 9.4844-22.883s14.309-9.5 22.902-9.5039zm58.637 0c8.5938 0 16.824 3.4102 22.898 9.4844 6.0781 6.0781 9.4844 14.309 9.4844 22.902s-3.4102 16.824-9.4844 22.898c-6.0742 6.0781-14.309 9.5039-22.898 9.5039-8.5938 0-16.824-3.4258-22.898-9.5039-0.054688-0.054687-0.097656-0.11719-0.15625-0.17187-0.007812-0.011719-0.011719-0.023438-0.019531-0.035157-5.957-6.0547-9.3086-14.203-9.3125-22.695 0.007812-8.4922 3.3594-16.625 9.3125-22.68v0.003907c0.09375-0.10156 0.1875-0.20313 0.27344-0.30859 6.0664-6.0156 14.25-9.3984 22.797-9.3984zm-304.22 43.133c-4.75 0.33594-8.3633 4.4023-8.1328 9.1602 0.22656 4.7578 4.2109 8.4609 8.9727 8.3398h47.082c2.3555 0.054687 4.6289-0.84766 6.3125-2.4922 1.6836-1.6484 2.6328-3.9023 2.6328-6.2578s-0.94922-4.6094-2.6328-6.2578c-1.6836-1.6445-3.957-2.543-6.3125-2.4922h-47.082c-0.28125-0.011719-0.55859-0.011719-0.83984 0z"/>
</svg>
