<?xml version="1.0" encoding="UTF-8"?>
<svg width="700pt" height="700pt" version="1.1" viewBox="0 0 700 700" xmlns="http://www.w3.org/2000/svg">
 <path d="m126.17 499.83h447.66c6.1562 0 11.199 5.0391 11.199 11.199v9.7773c0 6.1719-5.0391 11.199-11.199 11.199h-447.66c-6.1641 0-11.199-5.0273-11.199-11.199v-9.7773c0-6.1562 5.0352-11.199 11.199-11.199zm64.633-278.04c-7.4922 3.3594-16.289 0.011719-19.652-7.4805-3.3477-7.4883 0-16.289 7.4883-19.652l296.38-132.81-14.777-5.0664c-7.7188-2.6523-11.832-11.078-9.1797-18.797 2.6445-7.7188 11.066-11.84 18.789-9.1875l50.301 17.27c7.7266 2.6523 11.84 11.07 9.1953 18.797-6.3047 16.535-14.047 33.539-20.945 49.965-3.1562 7.5195-11.84 11.07-19.359 7.9102-7.5273-3.1602-11.078-11.832-7.918-19.359l6.0391-14.398zm-10.523 84.23h78.426c5.7539 0 10.445 4.6953 10.445 10.445v161.91c0 5.7461-4.6914 10.445-10.445 10.445h-78.426c-5.7461 0-10.445-4.6953-10.445-10.445v-161.91c0-5.7461 4.6953-10.445 10.445-10.445zm261.02-156.68h78.426c5.7461 0 10.445 4.6953 10.445 10.445v318.59c0 5.7461-4.6953 10.445-10.445 10.445h-78.426c-5.7539 0-10.445-4.6953-10.445-10.445v-318.59c0-5.7461 4.6914-10.445 10.445-10.445zm-130.51 78.344h78.43c5.7461 0 10.445 4.6914 10.445 10.445v240.25c0 5.7461-4.6953 10.445-10.445 10.445h-78.43c-5.7461 0-10.445-4.6953-10.445-10.445v-240.25c0-5.7539 4.6953-10.445 10.445-10.445z" fill-rule="evenodd"/>
</svg>
